<?xml version="1.0" encoding="UTF-8" standalone="no"?>
<!-- Generator: Gravit.io -->
<svg xmlns="http://www.w3.org/2000/svg" xmlns:xlink="http://www.w3.org/1999/xlink" style="isolation:isolate" viewBox="1210 6 684 708" width="684pt" height="708pt"><defs><clipPath id="_clipPath_Js3BfVOwg5zxhXnqgFLotwdXJkkbTyfx"><rect x="1210" y="6" width="684" height="708"/></clipPath></defs><g clip-path="url(#_clipPath_Js3BfVOwg5zxhXnqgFLotwdXJkkbTyfx)"><rect x="1210" y="6" width="684" height="708" style="fill:rgb(87,87,87)" fill-opacity="0"/><path d=" M 1552 6 L 1287 6 C 1244.503 6 1210 40.503 1210 83 L 1210 637 C 1210 679.497 1244.503 714 1287 714 L 1552 714 L 1552 6 Z  M 1818 698 L 1631 698 C 1622.721 698 1616 704.721 1616 713 L 1616 714 L 1817 714 C 1859.497 714 1894 679.497 1894 637 L 1894 83 C 1894 40.503 1859.497 6 1817 6 L 1616 6 L 1616 7 C 1616 15.279 1622.721 22 1631 22 L 1818 22 C 1851.115 22 1878 48.885 1878 82 L 1878 638 C 1878 671.115 1851.115 698 1818 698 Z  M 1696 589 L 1552 589 L 1552 640 L 1731 640 L 1731 624 C 1731 604.683 1715.317 589 1696 589 Z  M 1693 352 L 1680 352 L 1680 335 L 1695 335 C 1711.557 335 1725 348.443 1725 365 L 1725 546 C 1725 554.831 1732.169 562 1741 562 L 1741 562 C 1749.831 562 1757 554.831 1757 546 L 1757 295 L 1774 295 L 1774 545 C 1774 563.213 1759.213 578 1741 578 L 1741 578 C 1722.787 578 1708 563.213 1708 545 L 1708 367 C 1708 358.721 1701.279 352 1693 352 Z  M 1716.25 215 L 1815.25 215 L 1815.25 255 C 1815.25 277.077 1797.327 295 1775.25 295 L 1756.25 295 C 1734.173 295 1716.25 277.077 1716.25 255 L 1716.25 215 Z  M 1791.759 204 L 1742.741 204 L 1742.741 204 L 1740.378 204 L 1740.378 204 L 1711 204 C 1705.757 204 1701.5 199.743 1701.5 194.5 L 1701.5 194.5 C 1701.5 189.257 1705.757 185 1711 185 L 1734.06 185 L 1734.06 138.318 C 1734.06 134.831 1736.891 132 1740.378 132 L 1742.741 132 C 1746.229 132 1749.06 134.831 1749.06 138.318 L 1749.06 185 L 1785.44 185 L 1785.44 138.318 C 1785.44 134.831 1788.271 132 1791.759 132 L 1794.122 132 C 1797.609 132 1800.44 134.831 1800.44 138.318 L 1800.44 185 L 1820.5 185 C 1825.743 185 1830 189.257 1830 194.5 L 1830 194.5 C 1830 199.743 1825.743 204 1820.5 204 L 1794.122 204 L 1794.122 204 L 1791.759 204 L 1791.759 204 Z  M 1552 124.157 L 1552 81 L 1623 81 C 1654.459 81 1680 106.541 1680 138 L 1680 578 L 1552 578 L 1552 514.745 L 1552 330.255 L 1552 272 L 1620 272 C 1633.798 272 1645 260.798 1645 247 L 1645 149.157 C 1645 135.359 1633.798 124.157 1620 124.157 L 1552 124.157 Z  M 1552 330.255 L 1552 514.745 L 1620.919 405.24 C 1622.28 403.079 1622.362 400.352 1621.131 398.123 C 1619.901 395.888 1617.549 394.5 1614.999 394.5 L 1558.938 394.5 L 1579.788 311.757 C 1580.629 308.414 1578.926 304.962 1575.761 303.602 C 1572.617 302.248 1568.919 303.383 1567.08 306.295 L 1552 330.255 L 1552 330.255 L 1552 330.255 Z  M 1408 589 L 1552 589 L 1552 640 L 1373 640 L 1373 624 C 1373 604.683 1388.683 589 1408 589 Z  M 1424 352 L 1411 352 C 1402.721 352 1396 358.721 1396 367 L 1396 545 C 1396 563.213 1381.213 578 1363 578 L 1363 578 C 1344.787 578 1330 563.213 1330 545 L 1330 265 L 1330 265 L 1319 265 C 1310.721 265 1304 258.279 1304 250 L 1304 200.132 L 1304 193 L 1304 193 L 1304.057 193 L 1304.057 193 L 1320.298 169.804 L 1326.315 174.017 L 1326.315 174.017 L 1326.315 174.017 L 1326.315 174.017 L 1334.819 161.871 L 1356.679 177.177 L 1348.174 189.323 L 1358.511 196.561 C 1372.36 202.852 1382 216.809 1382 233 L 1382 236 C 1382 252.006 1369.005 265 1353 265 L 1347 265 L 1347 546 C 1347 554.831 1354.169 562 1363 562 L 1363 562 C 1371.831 562 1379 554.831 1379 546 L 1379 365 C 1379 348.443 1392.443 335 1409 335 L 1424 335 L 1424 138 C 1424 106.541 1449.541 81 1481 81 L 1552 81 L 1552 124.157 L 1552 124.157 L 1552 124.157 L 1484 124.157 C 1470.202 124.157 1459 135.359 1459 149.157 L 1459 247 C 1459 260.798 1470.202 272 1484 272 L 1552 272 L 1552 578 L 1424 578 L 1424 352 Z  M 1327 230 C 1327 218.962 1335.962 210 1347 210 C 1358.038 210 1367 218.962 1367 230 C 1367 241.038 1358.038 250 1347 250 C 1335.962 250 1327 241.038 1327 230 L 1327 230 L 1327 230 L 1327 230 L 1327 230 L 1327 230 L 1327 230 Z  M 1352.487 136.639 L 1361.227 124.157 L 1383.087 139.463 L 1374.347 151.945 L 1352.487 136.639 L 1352.487 136.639 L 1352.487 136.639 Z  M 1340 154.694 L 1348.74 142.212 L 1370.599 157.518 L 1361.859 170 L 1340 154.694 L 1340 154.694 Z  M 1552 514.745 L 1536.92 538.705 C 1535.074 541.621 1531.399 542.749 1528.239 541.398 L 1528.239 541.398 C 1525.073 540.037 1523.371 536.586 1524.212 533.242 L 1545.062 450.499 L 1489.001 450.499 C 1486.451 450.499 1484.099 449.111 1482.869 446.876 C 1481.638 444.648 1481.72 441.92 1483.081 439.76 L 1552 330.255 L 1552 514.745 L 1552 514.745 Z  M 1320.31 305 L 1330 305 L 1330 316 L 1320.31 316 L 1320.31 305 Z  M 1347 305 L 1356.69 305 L 1356.69 316 L 1347 316 L 1347 305 Z  M 1347 280 L 1356.69 280 L 1356.69 291 L 1347 291 L 1347 280 Z  M 1320.31 280 L 1330 280 L 1330 291 L 1320.31 291 L 1320.31 280 Z  M 1784.44 330 L 1774 330 L 1774 341 L 1784.44 341 L 1784.44 330 Z  M 1757 330 L 1748.06 330 L 1748.06 341 L 1757 341 L 1757 330 Z  M 1757 305 L 1746.56 305 L 1746.56 316 L 1757 316 L 1757 305 Z  M 1782.94 305 L 1774 305 L 1774 316 L 1782.94 316 L 1782.94 305 Z " fill-rule="evenodd" fill="rgb(255,255,255)"/></g></svg>